<svg width="157" height="183" viewBox="0 0 157 183" fill="none" xmlns="http://www.w3.org/2000/svg">
<path d="M55.8653 167.455L55.8806 86.6294C55.881 84.2748 52.3267 83.3148 50.7238 85.2506C43.8187 93.6039 36.3177 102.219 29.0235 103.927C18.1951 106.646 6.09457 100.661 1.92533 92.0088C-3.39422 81.8915 3.24392 72.7707 10.5598 65.0802C19.561 54.7214 37.4606 34.0911 47.1399 22.9127C55.3396 13.7573 62.8823 1.54937 77.8197 0.156843C87.7848 -1.00988 94.8105 4.52051 99.9458 10.975C110.751 23.4131 135.175 51.6037 146.329 64.4605C153.704 72.1886 160.441 81.2945 155.056 91.5144C150.884 100.165 138.781 106.163 127.953 103.422C120.701 101.764 113.203 93.0938 106.281 84.7552C104.678 82.8363 101.124 83.795 101.123 86.1496L101.108 167.481C101.106 176.045 92.9277 183.003 82.819 183.001L74.1279 182.999C64.0398 182.997 55.8432 176.054 55.8448 167.472L55.8653 167.455Z" fill="black"/>
</svg>
