<svg xmlns="http://www.w3.org/2000/svg" width="265" height="264" viewBox="0 0 265 264" fill="none">
<path d="M132.5 0L142.402 67.112L171.665 5.89736L161.326 72.9435L207.349 23.0653L177.688 84.0882L236.383 49.9785L190.036 99.556L256.187 84.2456L197.271 117.973L265 122.821L198.75 137.701L262.04 162.279L194.344 156.99L247.57 199.112L184.442 174.123L222.876 230.048L169.925 187.579L190.151 252.337L152.083 196.163L152.304 264L132.5 199.112L112.696 264L112.918 196.163L74.8493 252.337L95.0757 187.579L42.1245 230.048L80.5586 174.123L17.4299 199.112L70.6568 156.99L2.95979 162.279L66.2501 137.701L0 122.821L67.7301 117.973L8.81334 84.2456L74.9651 99.556L28.6169 49.9785L87.312 84.0882L57.6509 23.0653L103.675 72.9435L93.3355 5.89736L122.599 67.112L132.5 0Z" fill="#F8D046"/>
</svg>