<svg xmlns="http://www.w3.org/2000/svg" width="716" height="18" viewBox="0 0 716 18" fill="none">
  <path fill-rule="evenodd" clip-rule="evenodd" d="M1.5 0C0.671573 0 0 0.671573 0 1.5C0 2.32843 0.671573 3 1.5 3C9.85159 3 13.9543 6.43824 18.3635 10.1478L18.3862 10.1669C22.885 13.9518 27.6967 18 37.1584 18C46.6201 18 51.4318 13.9518 55.9306 10.1669L55.9533 10.1478C60.3625 6.43824 64.4652 3 72.8168 3C81.1683 3 85.271 6.43825 89.6744 10.1473L89.7054 10.1734C94.1956 13.9555 98.9973 18 108.433 18C117.901 18 122.713 13.947 127.21 10.1594L127.224 10.1473C131.629 6.43687 135.721 3 144.05 3C152.402 3 156.505 6.43827 160.908 10.1473L160.939 10.1735C165.429 13.9556 170.231 18 179.666 18C189.129 18 193.94 13.9517 198.439 10.1667L198.462 10.1478C202.871 6.43821 206.973 3 215.324 3C223.676 3 227.779 6.43825 232.188 10.1478L232.211 10.1669C236.71 13.9519 241.522 18 250.984 18C260.445 18 265.256 13.952 269.755 10.1671L269.778 10.1478C274.187 6.43825 278.29 3 286.641 3C294.993 3 299.096 6.43825 303.505 10.1478L303.528 10.1669C308.027 13.9519 312.839 18 322.301 18C331.762 18 336.573 13.952 341.072 10.1672L341.095 10.1478C345.504 6.43825 349.607 3 357.958 3C366.31 3 370.413 6.43824 374.822 10.1478L374.845 10.1669C379.344 13.9518 384.155 18 393.617 18C403.079 18 407.89 13.9518 412.389 10.1669L412.412 10.1478C416.821 6.43824 420.924 3 429.275 3C437.627 3 441.729 6.43825 446.133 10.1473L446.164 10.1734C450.654 13.9555 455.456 18 464.892 18C474.36 18 479.172 13.947 483.668 10.1594L483.683 10.1473C488.088 6.43687 492.179 3 500.508 3C508.86 3 512.963 6.43827 517.366 10.1473L517.398 10.1735C521.888 13.9556 526.689 18 536.125 18C545.587 18 550.399 13.9517 554.898 10.1667L554.92 10.1478C559.329 6.43821 563.432 3 571.783 3C580.135 3 584.237 6.43825 588.647 10.1478L588.669 10.1669C593.168 13.9519 597.98 18 607.442 18C616.903 18 621.714 13.952 626.213 10.1671L626.236 10.1478C630.645 6.43825 634.748 3 643.1 3C651.452 3 655.554 6.43825 659.964 10.1478L659.986 10.1669C664.485 13.9519 669.297 18 678.759 18C688.22 18 693.031 13.952 697.53 10.1672L697.553 10.1478C701.962 6.43825 706.065 3 714.417 3C715.245 3 715.917 2.32843 715.917 1.5C715.917 0.671573 715.245 0 714.417 0C704.955 0 700.143 4.04829 695.644 7.83333L695.622 7.85219C691.213 11.5618 687.11 15 678.759 15C670.407 15 666.304 11.5618 661.895 7.85218L661.872 7.83309C657.373 4.04813 652.562 0 643.1 0C633.638 0 628.826 4.04829 624.327 7.83333L624.305 7.85219C619.896 11.5618 615.793 15 607.442 15C599.09 15 594.987 11.5618 590.578 7.85218L590.555 7.83311C586.056 4.04815 581.245 0 571.783 0C562.322 0 557.51 4.04802 553.012 7.8329L552.989 7.85219C548.58 11.5617 544.477 15 536.125 15C527.796 15 523.704 11.5631 519.299 7.85275L519.285 7.84053C514.788 4.05301 509.976 0 500.508 0C491.073 0 486.271 4.04436 481.781 7.82645L481.75 7.85275C477.347 11.5617 473.244 15 464.892 15C456.562 15 452.471 11.5631 448.066 7.85275L448.051 7.84039C443.554 4.05293 438.743 0 429.275 0C419.814 0 415.002 4.04815 410.503 7.83311L410.48 7.85219C406.071 11.5618 401.968 15 393.617 15C385.265 15 381.163 11.5618 376.753 7.85219L376.731 7.83312C372.232 4.04815 367.42 0 357.958 0C348.496 0 343.685 4.04829 339.186 7.83333L339.163 7.85219C334.754 11.5618 330.652 15 322.301 15C313.949 15 309.846 11.5618 305.437 7.85218L305.414 7.83309C300.915 4.04813 296.103 0 286.641 0C277.179 0 272.368 4.04829 267.869 7.83333L267.846 7.85219C263.437 11.5618 259.335 15 250.984 15C242.632 15 238.529 11.5618 234.12 7.85218L234.097 7.83311C229.598 4.04815 224.786 0 215.324 0C205.863 0 201.052 4.04802 196.553 7.8329L196.53 7.85219C192.121 11.5617 188.018 15 179.666 15C171.337 15 167.246 11.5631 162.841 7.85275L162.826 7.84053C158.329 4.05301 153.518 0 144.05 0C134.614 0 129.813 4.04436 125.323 7.82645L125.291 7.85275C120.888 11.5617 116.785 15 108.433 15C100.104 15 96.0121 11.5631 91.6071 7.85275L91.5924 7.84039C87.0959 4.05293 82.2842 0 72.8168 0C63.3551 0 58.5434 4.04815 54.0446 7.83311L54.0219 7.85219C49.6127 11.5618 45.51 15 37.1584 15C28.8068 15 24.7041 11.5618 20.2949 7.85219L20.2722 7.83312C15.7734 4.04815 10.9617 0 1.5 0Z" fill="#F8D046"/>
</svg>